<svg version="1.2" xmlns="http://www.w3.org/2000/svg" viewBox="0 0 65 65" width="65" height="65"><defs><linearGradient id="P" gradientUnits="userSpaceOnUse"/><linearGradient id="g1" x1=".3" y1="32.2" x2="64.3" y2="32.2" href="#P"><stop offset=".5" stop-color="#1793d1"/><stop offset=".5" stop-color="#00f"/><stop offset=".5" stop-color="#00f"/></linearGradient><linearGradient id="g2" x1="602.8" y1="384.8" x2="317.3" y2="1135.5" href="#P"><stop stop-color="#fff" stop-opacity="0"/><stop offset="1" stop-color="#fff" stop-opacity=".27"/></linearGradient></defs><style>.a{fill:url(#g1)}.b{opacity:.2;fill:#fff}.c{fill:url(#g2)}</style><path class="a" d="m32.3 0.2c-2.9 7-4.6 11.6-7.8 18.3 1.9 2.1 4.3 4.5 8.2 7.2-4.2-1.7-7-3.4-9.1-5.2-4.1 8.5-10.4 20.5-23.3 43.7 10.1-5.8 18-9.5 25.3-10.8-0.3-1.4-0.5-2.9-0.5-4.4v-0.3c0.2-6.5 3.6-11.5 7.6-11.2 4 0.4 7.1 5.9 6.9 12.4q0 1.9-0.4 3.5c7.3 1.4 15 5 25.1 10.8-2-3.6-3.8-6.9-5.5-10-2.6-2.1-5.4-4.7-11-7.6 3.9 1 6.6 2.1 8.8 3.4-17.1-31.8-18.5-36-24.3-49.8q0 0 0 0z"/><path class="b" d="m50.3 38.2c-13.9-18.8-17.1-34-17.9-37.6 7.4 17.1 7.3 17.3 17.9 37.6z"/><path class="c" d="m32.4 0.5q-0.6 1.3-1.1 2.5-0.5 1.4-1 2.6-0.5 1.3-1 2.5-0.5 1.2-1 2.4-0.6 1.2-1.1 2.4-0.6 1.2-1.2 2.5-0.6 1.3-1.3 2.8-0.1 0.2-0.2 0.4c2 2 4.4 4.4 8.2 7.1-4.1-1.7-7-3.4-9.1-5.2-0.1 0.2-0.2 0.4-0.3 0.6-0.4 0.9-0.9 1.8-1.4 2.7-0.1 0.3-0.2 0.5-0.3 0.7q-0.7 1.5-1.6 3.1c-0.1 0.3-0.2 0.4-0.3 0.7-0.4 0.6-1.5 2.7-2.6 4.9-0.6 1.2-1.1 2.2-1.9 3.6-0.2 0.4-0.6 1.2-0.7 1.4 8.1-4.5 16.9-11.2 32.8-5.5q-1.2-2.2-2.3-4.2-1-2-1.9-3.8-0.9-1.8-1.6-3.3-0.8-1.6-1.5-3-0.6-1.5-1.2-2.8-0.6-1.3-1.2-2.5-0.5-1.3-1-2.5c-0.3-0.8-0.7-1.6-1-2.4q-0.2-0.6-0.4-1.1c-0.9-2.1-1.8-4.2-2.8-6.6q0 0 0 0z"/></svg>